<svg xmlns="http://www.w3.org/2000/svg" viewBox="0 0 186.13 141.87"><defs><style>.cls-1{fill:#fff;}.cls-2{fill:#6d3327;}.cls-3{fill:#52241a;}.cls-4{fill:#8f7f56;}.cls-5{fill:#a1bfc2;}.cls-6{fill:none;}.cls-7{fill:#c60000;}.cls-8{fill:#e20303;}.cls-9{fill:#a00;}.cls-10{fill:#8e0000;}.cls-11{fill:#b0acab;}.cls-12{fill:#ff0e00;}.cls-13{fill:red;}.cls-14{fill:#fa1a00;}.cls-15{fill:#c41111;}.cls-16{fill:#00c927;}.cls-17{fill:#d40000;}.cls-18{fill:#7b3f31;}.cls-19{fill:#421911;}.cls-20{fill:#2e110c;}.cls-21{fill:#210b07;}.cls-22{fill:#61322a;}.cls-23{fill:#4a1f16;}.cls-24{fill:#737373;}.cls-25{fill:#3d1e17;}.cls-26{fill:#ff2a66;}.cls-27{font-size:48.96px;font-family:BernardMT-Condensed, Bernard MT Condensed;}</style></defs><title>Asset 3</title><g id="Layer_2" data-name="Layer 2"><g id="Layer_1-2" data-name="Layer 1"><rect class="cls-1" width="186.13" height="141.87"/><path class="cls-2" d="M11.11,119.17a7.75,7.75,0,0,1-1.2,2.27,3,3,0,0,1-.23.26h0a2,2,0,0,1-1.81.79,3.89,3.89,0,0,1-1.7-1.07L5.89,121s-.93-2.49,3.68-5.85l-.1-10.38.21.43h0A24.25,24.25,0,0,1,11.11,109a19.91,19.91,0,0,1,.74,4.64A14.37,14.37,0,0,1,11.11,119.17Z"/><path class="cls-3" d="M11.11,119.17a7.75,7.75,0,0,1-1.2,2.27,3,3,0,0,1-.23.26h0a2,2,0,0,1-1.81.79,3.89,3.89,0,0,1-1.7-1.07L5.89,121s-.93-2.49,3.68-5.85l-.1-10.38.21.43h0A24.25,24.25,0,0,1,11.11,109a19.91,19.91,0,0,1,.74,4.64A14.37,14.37,0,0,1,11.11,119.17Z"/><path class="cls-3" d="M51.89,119.4a21.3,21.3,0,0,1-2.76-.26h-.05l-.8-.14a23.82,23.82,0,0,1-2.75-.76h0a21.14,21.14,0,0,1-5.69-3c.22.22.42.43.6.65l0,0a2.87,2.87,0,0,1,.44.71h0s0,0,0,0l0,.11v0c0,.3-.08.53-.53.62-2,.4-8.24-4.83-8.24-4.83l-.53.21a26.21,26.21,0,0,0-4.25,2.56c-.66.45-1.34,1-2,1.46l-.2.16-.06,0-.14.1-1.52,1.15c-1.89,1.45-3.84,3-5.71,4.34a50,50,0,0,1-5,3.3l0-.88c.05-1.52.05-3,0-4.55l-1.45-.63a2.26,2.26,0,0,1-.24-.64,7.75,7.75,0,0,1-1.2,2.27,3,3,0,0,1-.23.26h0a2,2,0,0,1-1.81.79,3.89,3.89,0,0,1-1.7-1.07L5.89,121s-.93-2.49,3.68-5.85l.25-.18c.32-.23.66-.45,1-.69l1-.59.81-.45a59.6,59.6,0,0,1,10.25-4l1-.31.1,0,.06,0,.19,0,1.49-.43.95-.25h0l.44-.12.46-.11,1.21-.29s.34-.12.94-.29h0l.12,0h0l.4-.1.46-.11.78-.18c3-.59,7.92-1,12,1.28a16.26,16.26,0,0,1,5.26,4.93A22.09,22.09,0,0,1,51.89,119.4Z"/><path class="cls-4" d="M60,126.37h-.62a17.53,17.53,0,0,1-1.78-.11.43.43,0,0,1-.16,0h-.34a21,21,0,0,1-2.37-.44,0,0,0,0,1,0,0h0c-2.18-1.43-4.37-2.89-6.62-4.38l-1.44-1a1.28,1.28,0,0,1-.25-.15l-.22-.16-.08,0L46,120h0l0,0h0l-.06,0-.1-.06c-.12-.1-.25-.18-.38-.27l-.15-.09h0l0,0h0l0,0-.06,0-1.56-1h0l-.06,0,0,0h0l-2.11-1.4a.33.33,0,0,1-.1-.06h0l-.08-.07-.06,0h0l-.06,0h0l-.06-.05,0,0-1.33-.87-.2-.14-11.69-7.74-2.48-1.64-.51-.34,0,0c-.29-.18-.57-.37-.86-.57l-.2-.13-.07,0a.24.24,0,0,1-.09-.06h0l-.65-.43-10.56-7-.51-.34h0L9.55,95.84l-.16-.11,0-3,.14.1,1.82,1.21,1.2.8,6.37,4.24,3.79,2.52c.07,0,.15.09.22.15a.15.15,0,0,1,.07,0h0a.15.15,0,0,1,.07,0,.94.94,0,0,1,.18.12h0l.66.44h0c1,.7,2.08,1.38,3.13,2.08h0l.29.19,0,0,.08.06,1.49,1L30.8,107c1.19.79,2.34,1.57,3.53,2.32l.06.05,13.92,9.21c.27.17.51.35.77.52h.05l7.47,5h0l1.19.78h0l.45.3.09.06h0a.44.44,0,0,1,.11.08h0Q59.28,125.85,60,126.37Z"/><path class="cls-5" d="M69.94,64.53,70,64.3l0,.25h-.06Z"/><path class="cls-5" d="M71.52,60.08,70,64.27a30.07,30.07,0,0,1,.6-3.39,1.06,1.06,0,0,1,.78-.79Z"/><polyline class="cls-6" points="69.94 64.53 70.03 64.3 70.04 64.27 71.52 60.08"/><path d="M73.43,64.72a8.51,8.51,0,0,1-1.43.07,29.62,29.62,0,0,1,.55-3.24,1.19,1.19,0,0,0-.66-1.43.78.78,0,0,0-.37,0h-.1a1,1,0,0,0-.84.77,32.36,32.36,0,0,0-.64,3.67h0a10.82,10.82,0,0,1-1.25-.3c-.35-9.49,3-20.06,3-20.06C73.83,52.28,73.43,64.72,73.43,64.72Z"/><path class="cls-5" d="M71.52,60.08,70,64.27v0l-.09.23a32.36,32.36,0,0,1,.64-3.67,1,1,0,0,1,.84-.77Z"/><path class="cls-4" d="M70.94,94.69c0,.11,0,.23,0,.35,0,.69-.08,1.4-.12,2.11h0c-.18,2.94-.41,6-.67,9.15h0c0,.29,0,.59-.07.89s0,.35,0,.52a.49.49,0,0,0,0,.12h0a.15.15,0,0,0,0,.07h0c0,.62-.11,1.24-.16,1.87l-.31,0-1.67-.19c.1-1.17.2-2.32.3-3.47h0l.22-2.9h0a.57.57,0,0,0,0-.13h0a.28.28,0,0,0,0-.09h0c0-.19,0-.36,0-.55h0l.19-2.52L69,94c0-.85.08-1.68.11-2.5,0-.13,0-.26,0-.39h0l0-1.63c0-.55,0-1.09,0-1.62l.72-23.28h0a32.36,32.36,0,0,1,.64-3.67,1,1,0,0,1,.84-.77h.1Z"/><path class="cls-4" d="M71.52,60.08a.81.81,0,0,1,.31.05,1.18,1.18,0,0,1,.66,1.42,27.4,27.4,0,0,0-.55,3.24,122.75,122.75,0,0,0-.71,17.68c.07,3.7,0,7.8-.29,12.22Z"/><path class="cls-4" d="M69.94,64.54a127.14,127.14,0,0,0-.71,18c0,.73,0,1.48,0,2.25,0,2,0,4.09-.13,6.29Z"/><path class="cls-3" d="M69.69,122.92a24,24,0,0,1-5,4.5,28.47,28.47,0,0,1-2.2-2.06l-.1-.1-.13-.15c-3-3.27-3.38-5.57-3.38-5.57a89.23,89.23,0,0,1-2.88-9.3c.22-1.45.49-2.89.8-4.31.09-.38.18-.76.29-1.14a.12.12,0,0,1,0-.1s0,0,0,0a.32.32,0,0,1,0-.14c.1-.41.2-.81.32-1.21s.29-1.06.45-1.58c.11.53.22,1.07.35,1.6s.19.81.29,1.21a.74.74,0,0,0,0,.14v0l0,.08c.09.38.19.77.31,1.14a29,29,0,0,0,3.36,8,10.89,10.89,0,0,0,.64,1.16c.12.21.27.44.45.7,0,.07.09.14.14.21a.61.61,0,0,0,.07.1l.11.16.5.69c.42.56.91,1.19,1.5,1.87l.28.32h0l.07.07A47.19,47.19,0,0,0,69.69,122.92Z"/><path class="cls-1" d="M29.55,68.81l-.06-.06a.31.31,0,0,0-.11-.09,1,1,0,0,0-1.39,0,1,1,0,0,0-.33.86h0a1,1,0,0,0,.27.63l.09.09a1,1,0,0,0,.75.32h0a1,1,0,0,0,.58-.14,1.39,1.39,0,0,0,.19-.15,1.06,1.06,0,0,0,0-1.5ZM28.14,70a1.62,1.62,0,0,1-.2.18l.08.08a1,1,0,0,0,.75.32Zm0,0a1.62,1.62,0,0,1-.2.18l.08.08a1,1,0,0,0,.75.32Zm2.89.19H31l-.08-.08a1,1,0,0,0-.64-.23l-.53.17-.24.2a.59.59,0,0,0-.13.19.93.93,0,0,0-.15.53h0a1.07,1.07,0,0,0,.34.77l.11.09a1.07,1.07,0,0,0,.68.26v0a.22.22,0,0,0,.11,0h0a1,1,0,0,0,.7-.36A1.06,1.06,0,0,0,31,70.21Zm-3.09,0,.08.08a1,1,0,0,0,.75.32L28.14,70A1.62,1.62,0,0,1,27.94,70.2Zm.2-.18a1.62,1.62,0,0,1-.2.18l.08.08a1,1,0,0,0,.75.32Zm0,0a1.62,1.62,0,0,1-.2.18l.08.08a1,1,0,0,0,.75.32Zm0,0a1.62,1.62,0,0,1-.2.18l.08.08a1,1,0,0,0,.75.32Zm1.55,1.39h0l-.47-.4a1.07,1.07,0,0,0,.34.77l.11.09a1.07,1.07,0,0,0,.68.26v0a.22.22,0,0,0,.11,0Zm0,0h0l-.47-.4a1.07,1.07,0,0,0,.34.77l.11.09a1.07,1.07,0,0,0,.68.26v0a.22.22,0,0,0,.11,0Zm0,0h0l-.47-.4a1.07,1.07,0,0,0,.34.77l.11.09a1.07,1.07,0,0,0,.68.26v0a.22.22,0,0,0,.11,0Zm0,0h0l-.47-.4a1.07,1.07,0,0,0,.34.77l.11.09a1.07,1.07,0,0,0,.68.26v0a.22.22,0,0,0,.11,0Zm3,.16h-.06a1.06,1.06,0,0,0-1.49.19l-.07.09a1,1,0,0,0-.18.56h0a1,1,0,0,0,.44.82.39.39,0,0,0,.1.08,1.08,1.08,0,0,0,.63.21v0l.18,0a1,1,0,0,0,.57-.3.52.52,0,0,0,.1-.11A1.19,1.19,0,0,0,33,72.9a0,0,0,0,0,0,0A1.06,1.06,0,0,0,32.69,71.57Zm-3-.17-.47-.4a1.07,1.07,0,0,0,.34.77l.11.09a1.07,1.07,0,0,0,.68.26v0a.22.22,0,0,0,.11,0l-.76-.65Zm0,0h0l-.47-.4a1.07,1.07,0,0,0,.34.77l.11.09a1.07,1.07,0,0,0,.68.26v0a.22.22,0,0,0,.11,0Zm0,0h0l-.47-.4a1.07,1.07,0,0,0,.34.77l.11.09a1.07,1.07,0,0,0,.68.26v0a.22.22,0,0,0,.11,0Zm0,0h0l-.47-.4a1.07,1.07,0,0,0,.34.77l.11.09a1.07,1.07,0,0,0,.68.26v0a.22.22,0,0,0,.11,0Zm0,0h0l-.47-.4a1.07,1.07,0,0,0,.34.77l.11.09a1.07,1.07,0,0,0,.68.26v0a.22.22,0,0,0,.11,0Zm2.44,2c-.42-.31-.83-.64-1.24-1a1,1,0,0,0,.44.82.39.39,0,0,0,.1.08,1.08,1.08,0,0,0,.63.21v0l.18,0Zm0,0c-.42-.31-.83-.64-1.24-1a1,1,0,0,0,.44.82.39.39,0,0,0,.1.08,1.08,1.08,0,0,0,.63.21v0l.18,0Zm0,0c-.42-.31-.83-.64-1.24-1a1,1,0,0,0,.44.82.39.39,0,0,0,.1.08,1.08,1.08,0,0,0,.63.21v0l.18,0Zm0,0c-.42-.31-.83-.64-1.24-1a1,1,0,0,0,.44.82.39.39,0,0,0,.1.08,1.08,1.08,0,0,0,.63.21v0l.18,0Zm2.32-.57h-.08a.41.41,0,0,0-.11-.07,1,1,0,0,0-1.25.15,0,0,0,0,1,0,0,.84.84,0,0,0-.18.23,0,0,0,0,0,0,0,.94.94,0,0,0-.11.63,1,1,0,0,0,.51.79l.09.06a1.06,1.06,0,0,0,.57.17.67.67,0,0,0,.24,0,1,1,0,0,0,.66-.49A1.07,1.07,0,0,0,34.45,72.81Zm-3.56-.39a1,1,0,0,0,.44.82.39.39,0,0,0,.1.08,1.08,1.08,0,0,0,.63.21v0l.18,0-.11-.08C31.71,73.07,31.3,72.74,30.89,72.42Zm1.24,1c-.42-.31-.83-.64-1.24-1a1,1,0,0,0,.44.82.39.39,0,0,0,.1.08,1.08,1.08,0,0,0,.63.21v0l.18,0Zm0,0c-.42-.31-.83-.64-1.24-1a1,1,0,0,0,.44.82.39.39,0,0,0,.1.08,1.08,1.08,0,0,0,.63.21v0l.18,0Zm0,0c-.42-.31-.83-.64-1.24-1a1,1,0,0,0,.44.82.39.39,0,0,0,.1.08,1.08,1.08,0,0,0,.63.21v0l.18,0Zm0,0c-.42-.31-.83-.64-1.24-1a1,1,0,0,0,.44.82.39.39,0,0,0,.1.08,1.08,1.08,0,0,0,.63.21v0l.18,0Zm.57.41a1,1,0,0,0,.51.79l.09.06a1.06,1.06,0,0,0,.57.17.67.67,0,0,0,.24,0C33.63,74.45,33.16,74.13,32.7,73.79Zm0,0a1,1,0,0,0,.51.79l.09.06a1.06,1.06,0,0,0,.57.17.67.67,0,0,0,.24,0C33.63,74.45,33.16,74.13,32.7,73.79Zm0,0a1,1,0,0,0,.51.79l.09.06a1.06,1.06,0,0,0,.57.17.67.67,0,0,0,.24,0C33.63,74.45,33.16,74.13,32.7,73.79Zm0,0a1,1,0,0,0,.51.79l.09.06a1.06,1.06,0,0,0,.57.17.67.67,0,0,0,.24,0C33.63,74.45,33.16,74.13,32.7,73.79Zm3.57.14h-.08a1.07,1.07,0,0,0-1.44.43,1,1,0,0,0-.08.77,1,1,0,0,0,.52.67l.11.06a1,1,0,0,0,.48.12v0a.47.47,0,0,0,.17,0,1,1,0,0,0,.77-.55A1.06,1.06,0,0,0,36.27,73.93Zm-3.06.65.09.06a1.06,1.06,0,0,0,.57.17.67.67,0,0,0,.24,0c-.48-.32-1-.64-1.41-1A1,1,0,0,0,33.21,74.58Zm-.51-.79a1,1,0,0,0,.51.79l.09.06a1.06,1.06,0,0,0,.57.17.67.67,0,0,0,.24,0C33.63,74.45,33.16,74.13,32.7,73.79Zm0,0a1,1,0,0,0,.51.79l.09.06a1.06,1.06,0,0,0,.57.17.67.67,0,0,0,.24,0C33.63,74.45,33.16,74.13,32.7,73.79Zm0,0a1,1,0,0,0,.51.79l.09.06a1.06,1.06,0,0,0,.57.17.67.67,0,0,0,.24,0C33.63,74.45,33.16,74.13,32.7,73.79Zm0,0a1,1,0,0,0,.51.79l.09.06a1.06,1.06,0,0,0,.57.17.67.67,0,0,0,.24,0C33.63,74.45,33.16,74.13,32.7,73.79Zm15.54-1.33a1.05,1.05,0,0,0-1.12,0,.38.38,0,0,0-.17.14h0a.65.65,0,0,0-.15.18h0a0,0,0,0,0,0,0h0l.47.42.18.17-.18-.11h0L46.81,73l0,0-.15-.1a.94.94,0,0,0-.08,1h0a0,0,0,0,0,0,0h0a1,1,0,0,0,.2.25,1.19,1.19,0,0,0-.25-.13h0a1,1,0,0,0-.34-.06,1.09,1.09,0,0,0-.72.28,1,1,0,0,0-.28,1.26,1,1,0,0,0-1.22-.35h-.09a1.06,1.06,0,0,0-.69,1.09,1.07,1.07,0,0,0-1.07-.75H42a1.07,1.07,0,0,0-1,.88,1.07,1.07,0,0,0-.87-1h-.07a1.07,1.07,0,0,0-1.22.69,1.07,1.07,0,0,0-.63-1.23l-.13,0-.07,0a1,1,0,0,0-1.25.65,1.07,1.07,0,0,0,.31,1.18,3.79,3.79,0,0,0,.34.2,1.14,1.14,0,0,0,.4.08,1.06,1.06,0,0,0,1-.66,1.07,1.07,0,0,0,.86,1.25h.14l.1,0H40a1,1,0,0,0,1-.85v.06a1.08,1.08,0,0,0,1.06,1l.07,0h.17a1.06,1.06,0,0,0,1-1,1.06,1.06,0,0,0,1.36.61h.11l.06,0,0,0,0,0a1,1,0,0,0,.55-.94s0,0,0,0a.28.28,0,0,0,0-.08h0a.92.92,0,0,0-.08-.27v-.07l.18.16,0,0a1,1,0,0,0,.76.17h0a1.09,1.09,0,0,0,.5-.23l.11-.1A1.06,1.06,0,0,0,47.3,75a1.28,1.28,0,0,0-.23-.66l0,0,0,0a1.06,1.06,0,0,0,1.42-.31l.08-.13a1.1,1.1,0,0,0,.16-.57A1.05,1.05,0,0,0,48.24,72.46ZM35.19,75.8l.11.06a1,1,0,0,0,.48.12v0a.47.47,0,0,0,.17,0c-.43-.25-.86-.51-1.28-.78A1,1,0,0,0,35.19,75.8Zm-2.49-2a1,1,0,0,0,.51.79l.09.06a1.06,1.06,0,0,0,.57.17.67.67,0,0,0,.24,0C33.63,74.45,33.16,74.13,32.7,73.79Zm0,0a1,1,0,0,0,.51.79l.09.06a1.06,1.06,0,0,0,.57.17.67.67,0,0,0,.24,0C33.63,74.45,33.16,74.13,32.7,73.79Zm0,0a1,1,0,0,0,.51.79l.09.06a1.06,1.06,0,0,0,.57.17.67.67,0,0,0,.24,0C33.63,74.45,33.16,74.13,32.7,73.79Zm0,0a1,1,0,0,0,.51.79l.09.06a1.06,1.06,0,0,0,.57.17.67.67,0,0,0,.24,0C33.63,74.45,33.16,74.13,32.7,73.79Zm3.57.14h-.08a1.07,1.07,0,0,0-1.44.43,1,1,0,0,0-.08.77,1,1,0,0,0,.52.67l.11.06a1,1,0,0,0,.48.12v0a.47.47,0,0,0,.17,0,1,1,0,0,0,.77-.55A1.06,1.06,0,0,0,36.27,73.93Zm-3.06.65.09.06a1.06,1.06,0,0,0,.57.17.67.67,0,0,0,.24,0c-.48-.32-1-.64-1.41-1A1,1,0,0,0,33.21,74.58Zm-.51-.79a1,1,0,0,0,.51.79l.09.06a1.06,1.06,0,0,0,.57.17.67.67,0,0,0,.24,0C33.63,74.45,33.16,74.13,32.7,73.79Zm0,0a1,1,0,0,0,.51.79l.09.06a1.06,1.06,0,0,0,.57.17.67.67,0,0,0,.24,0C33.63,74.45,33.16,74.13,32.7,73.79Zm0,0a1,1,0,0,0,.51.79l.09.06a1.06,1.06,0,0,0,.57.17.67.67,0,0,0,.24,0C33.63,74.45,33.16,74.13,32.7,73.79Z"/><path d="M62.26,125.11a2.09,2.09,0,0,1-.56,0,7.86,7.86,0,0,1-2.11-.17,20.68,20.68,0,0,1-3-.89h0l-7.47-5a21.3,21.3,0,0,0,2.76.26,22.09,22.09,0,0,0-3.06-6.34,16.26,16.26,0,0,0-5.26-4.93c-4.07-2.3-9-1.87-12-1.28-3.52-3.26-6.87-6.72-10.23-10.17q-3.11-3.15-6.1-6.42l-3.06-3.21-1.52-1.62a3.67,3.67,0,0,1-.67-.75.6.6,0,0,1-.09-.15,3.74,3.74,0,0,1-.33-.92l-.15,0A12.78,12.78,0,0,1,10,82.1a12.12,12.12,0,0,1,.69-1.4c.18-.5.46-1,.68-1.46A10.3,10.3,0,0,0,12,77.81c0,.07.07.15.11.22s0,0,0,0a27.78,27.78,0,0,0,3.57,6.41,44.29,44.29,0,0,0,5.13,5.9A57.14,57.14,0,0,0,33.12,100a45.44,45.44,0,0,0,14.93,5.11,64.28,64.28,0,0,0,7.83.78c.31,0,.61,0,.92,0-.31,1.42-.58,2.86-.8,4.31a89.23,89.23,0,0,0,2.88,9.3S59.23,121.84,62.26,125.11Z"/><path class="cls-7" d="M63.53,104.52l-1.42.12c-.86,0-2,.09-3.51.08l-1.49,0a57.27,57.27,0,0,1-17.44-3.18c-.43-.15-.87-.31-1.3-.49A40.75,40.75,0,0,1,33,98.46l-.11-.06-.24-.14c-.24-.13-.47-.27-.71-.42l-1-.61a.94.94,0,0,1-.18-.12l-.71-.47-.07,0c-.55-.38-1.08-.75-1.59-1.14-.35-.24-.69-.5-1-.75l-.1-.07,0,0-.16-.12c-.29-.21-.57-.43-.85-.65l-.39-.31-.27-.22h0L25,92.88l-.71-.58L24,92c-.42-.36-.83-.71-1.22-1.06l-.18-.16c-.45-.39-.87-.78-1.28-1.17l-.73-.7-.38-.37-.81-.82-.15-.15c-.47-.49-.91-1-1.33-1.42l-.67-.76c-.42-.49-.81-1-1.16-1.4l-.22-.28c-.09-.11-.18-.22-.25-.32-.25-.31-.47-.61-.67-.89h0q-.72-1-1.23-1.8c-.06-.09-.12-.17-.17-.26A20,20,0,0,1,12,77.66s0,0,0,0h0s0,0,0,0l0,0,0,0s0,0,0,0c-.49.54-2.93,3.44-2.51,6v0l0,.15,0,.17s0,0,0,.06h0a.14.14,0,0,0,0,.06,2.19,2.19,0,0,0,.12.33l0,.07.1.18h0l0,.07h0s0,0,0,0A1.43,1.43,0,0,0,10,85a0,0,0,0,0,0,0l.09.12h0l.12.14h0l.09.11,0,0s0,0,0,0h0l.16.19h0l.18.22h0a2.25,2.25,0,0,0,.21.24l.22.28h0l.51.62h0l.11.13.17.21q.14.18.3.36h0c.11.13.22.25.32.38a4.1,4.1,0,0,0,.34.41h0l.36.42a1.34,1.34,0,0,0,.11.14s0,0,0,0l.61.74h0l.2.24.48.56h0c2.17,2.57,4.94,5.74,8.07,9.11h0l.36.38,4.37,4.53L29.68,107l.26.24.09.1h0l.09.09,1.13,1.08a.13.13,0,0,0,.07.06c.43.41.87.82,1.31,1.21l0,0,.43.39a96.1,96.1,0,0,0,7.77,6.39h0l.16.12.06,0,.09.07a.33.33,0,0,0,.1.06q1,.73,2,1.38a0,0,0,0,1,0,0h0a0,0,0,0,0,0,0h0a.51.51,0,0,0,.13.09l.08.05c.49.33,1,.64,1.46.93l.05,0h0l0,0h0l.06,0,0,0h0l.15.09.58.33.06,0h0l0,0h0l.05,0,.34.19A50.55,50.55,0,0,0,57,124.89h.06l.08,0h0c.36.1.72.19,1.09.26a13.46,13.46,0,0,0,1.89.28h.12a6.06,6.06,0,0,0,2.11-.21,2.1,2.1,0,0,0,1.17-.78.46.46,0,0,0,0-.08V104.51ZM61.7,125.16a7.86,7.86,0,0,1-2.11-.17,20.68,20.68,0,0,1-3-.89h0l-7.47-5a21.3,21.3,0,0,0,2.76.26,22.09,22.09,0,0,0-3.06-6.34,16.26,16.26,0,0,0-5.26-4.93c-4.07-2.3-9-1.87-12-1.28-3.52-3.26-6.87-6.72-10.23-10.17q-3.11-3.15-6.1-6.42l-3.06-3.21-1.52-1.62a3.67,3.67,0,0,1-.67-.75.6.6,0,0,1-.09-.15,3.74,3.74,0,0,1-.33-.92l-.15,0A12.78,12.78,0,0,1,10,82.1a12.12,12.12,0,0,1,.69-1.4c.18-.5.46-1,.68-1.46A10.3,10.3,0,0,0,12,77.81c0,.07.07.15.11.22s0,0,0,0a27.78,27.78,0,0,0,3.57,6.41,44.29,44.29,0,0,0,5.13,5.9A57.14,57.14,0,0,0,33.12,100a45.44,45.44,0,0,0,14.93,5.11,64.28,64.28,0,0,0,7.83.78c.31,0,.61,0,.92,0-.31,1.42-.58,2.86-.8,4.31a89.23,89.23,0,0,0,2.88,9.3s.35,2.3,3.38,5.57A2.09,2.09,0,0,1,61.7,125.16Z"/><path d="M22.91,109.18a59.6,59.6,0,0,0-10.25,4l-.15-4.76c-.19-2.76-.28-5.52-.57-8.27,0-.07,0-.15,0-.22q-.11-1.35-.24-2.7l.51.34,10.56,7C22.79,106.15,22.84,107.67,22.91,109.18Z"/><path class="cls-8" d="M25.08,117c-.32-2.76-.67-5.49-1-8.14-.17-1.27-.35-2.51-.54-3.73,0-.22-.06-.43-.1-.64h0c-.14-.89-.28-1.76-.42-2.62h0c-.1-.64-.21-1.28-.32-1.9v0h0v0c-3.12-3.42-5.86-6.58-8-9.12h0c-.12-.12-.2-.22-.3-.34l-.19-.23L14,90c-.22-.25-.42-.49-.61-.73v0s0,0,0,0a1.34,1.34,0,0,1-.11-.14l-.36-.42h0a4.1,4.1,0,0,1-.34-.41c-.12-.13-.22-.26-.32-.38h0q-.16-.18-.3-.36l-.17-.21-.11-.13h0c-.19-.22-.36-.43-.51-.62h0a2.42,2.42,0,0,1-.22-.28,2.25,2.25,0,0,1-.21-.24h0l-.18-.22h0l-.16-.19h0l0,0,0,0-.09-.11h0l-.12-.14h0A.47.47,0,0,1,10,85a0,0,0,0,1,0,0,1.43,1.43,0,0,1-.14-.2s0,0,0,0h0l0-.07h0a1.62,1.62,0,0,1-.1-.18l0-.07a2.19,2.19,0,0,1-.12-.33.14.14,0,0,1,0-.06h0s0,0,0-.06a.85.85,0,0,1,0-.17l0-.15v.15s0,0,0,0,0,.36,0,.67c0,1.38,0,4.38.1,8.36,0,.94,0,1.93.05,3,0,2.82.08,6,.13,9.33h0c0,3.14.09,6.44.14,9.76,0,2.17.06,4.35.09,6.5a7.75,7.75,0,0,0,1.2-2.27,2.26,2.26,0,0,0,.24.64l1.45.63c0,1.52,0,3,0,4.55l0,.88a50,50,0,0,0,5-3.3L24,125.28l1.91.83.21.09C25.77,123.15,25.44,120.05,25.08,117Zm-12.42-3.77-.15-4.76c-.19-2.76-.28-5.52-.57-8.27,0-.07,0-.15,0-.22q-.11-1.35-.24-2.7l.51.34,10.56,7c0,1.53.09,3,.16,4.56A59.6,59.6,0,0,0,12.66,113.21Z"/><path d="M61.91,103.35c-1.21,0-2.43,0-3.64,0-.13-.53-.24-1.07-.35-1.6-.16.52-.31,1-.45,1.58a65,65,0,0,1-9-1,53.14,53.14,0,0,1-14.14-4.72,48.8,48.8,0,0,1-6.32-4,69.14,69.14,0,0,1-6-4.65c-3.66-3.28-7.26-6.83-9.81-11.13l-.11-.22h0l0,0,1.27-1.65a37,37,0,0,0,9.19,10.36,51.85,51.85,0,0,0,12.3,6.64,71,71,0,0,0,13.47,3.53,61.64,61.64,0,0,0,6.91.78c2.09.12,4.17.21,6.28.15C61.59,99.35,61.71,101.35,61.91,103.35Z"/><path class="cls-9" d="M62,96.59v8h0c-.84,0-2,.09-3.4.09l-1.48,0A57.26,57.26,0,0,1,38.37,101,44.11,44.11,0,0,1,33,98.46l-.11-.06-.95-.56-1-.61-.89-.59-.07,0c-.55-.38-1.08-.75-1.59-1.14-.35-.24-.69-.5-1-.75l-1.14-.87-.39-.31-.27-.22h0L25,92.88l-.71-.58L24,92c-.42-.36-.83-.71-1.22-1.06l-.18-.16c-.45-.39-.87-.78-1.28-1.17l-.73-.7-.38-.37-1-1c-.48-.49-.92-1-1.33-1.42l-.67-.76a40.44,40.44,0,0,1-3.71-5A20,20,0,0,1,12,77.66a.33.33,0,0,0,0-.06h0l0,0v0l0,0h0l.11.22c2.55,4.3,6.15,7.85,9.81,11.13a69.14,69.14,0,0,0,6,4.65,48.8,48.8,0,0,0,6.32,4,53.14,53.14,0,0,0,14.14,4.72,65,65,0,0,0,9,1c.14-.53.29-1.06.45-1.58.11.53.22,1.07.35,1.6,1.21,0,2.43,0,3.64,0-.2-2-.32-4-.47-6-2.11.06-4.19,0-6.28-.15a61.64,61.64,0,0,1-6.91-.78,71,71,0,0,1-13.47-3.53,51.85,51.85,0,0,1-12.3-6.64,37,37,0,0,1-9.19-10.36l.14-.19,0,0c.17.25.34.49.52.73a18.5,18.5,0,0,0,1.17,1.51h0l0,0,0,0h0l.05,0q.55.69,1.14,1.35c.16.18.33.37.51.55s.49.53.74.78.27.28.41.4c.3.31.6.59.91.87s.9.81,1.36,1.19,1.09.89,1.65,1.3c.32.25.64.49,1,.71a2.86,2.86,0,0,0,.3.22q.56.39,1.11.75.9.6,1.83,1.14c.43.26.86.5,1.3.74l.57.31c.42.23.84.45,1.27.66a60.76,60.76,0,0,0,6,2.58l.44.17s0,0,.05,0q.78.28,1.56.54l1.18.39a3.38,3.38,0,0,0,.42.13,3.88,3.88,0,0,0,.45.14c.38.13.76.24,1.14.34,1.06.3,2.1.58,3.12.83a88.13,88.13,0,0,0,15.73,2.34h.19C61.12,96.59,62,96.59,62,96.59Z"/><path d="M59.29,95.59Q54,95,48.75,93.87a89.49,89.49,0,0,1-13-3.65,56.4,56.4,0,0,1-12-5.89,40.78,40.78,0,0,1-8-6.07l-.06-.06-.24-.3a15.62,15.62,0,0,0,3-2,26.9,26.9,0,0,0,2.65-2.58,23.25,23.25,0,0,0,2.22-3A13.72,13.72,0,0,0,25,67h0a.08.08,0,0,0,0,0,27.85,27.85,0,0,0,5.93,7.79,42.52,42.52,0,0,0,3.83,3.26,44.92,44.92,0,0,0,4.3,2.63,36.81,36.81,0,0,0,9.4,3.59,47.18,47.18,0,0,0,5,.9,34.08,34.08,0,0,0,4.15.31c.27,1.66.51,3.33.78,5s.56,3.29.9,4.93A.86.86,0,0,1,59.29,95.59Z"/><path d="M61.17,83l-1.66.41-1-.14a60.7,60.7,0,0,1-9.37-1.67c-1.83-.51-3.64-1.11-5.41-1.8.26-.28.51-.57.74-.87.55-.69,1.06-1.41,1.54-2.15.12-.21.23-.43.33-.65h0a1.09,1.09,0,0,0,.5-.23l.11-.1A1.06,1.06,0,0,0,47.3,75a1.28,1.28,0,0,0-.23-.66s0,0,0,0a1.06,1.06,0,0,0,1.42-.31l.08-.13a1.1,1.1,0,0,0,.16-.57,1,1,0,0,0-1.62-.87.63.63,0,0,0-.49-.27,1,1,0,0,0-.44.11,2.54,2.54,0,0,0-.34.23,6.7,6.7,0,0,1-.45-.6l1.15,0a1.4,1.4,0,0,0,.46-.1l4.77.45a28.57,28.57,0,0,1,4.75.88,7.66,7.66,0,0,1,2.95,1.4h0l-.09.05a.24.24,0,0,0,0,.08C59.91,77.47,60.47,80.31,61.17,83Z"/><path class="cls-10" d="M59.42,96.47v0h-.05a86.49,86.49,0,0,1-23.6-4.76s0,0-.05,0A55.69,55.69,0,0,1,29.31,89a45.71,45.71,0,0,1-9-5.83,34.55,34.55,0,0,1-2.68-2.46c-.43-.43-.85-.88-1.25-1.33s-.77-.89-1.14-1.35l-.05,0h0l.13-.15.05,0c.41-.47.81-1,1.29-1.56,3.26-3.81,8-9,8.24-9.29L25,67s0,0,0,0h0a13.72,13.72,0,0,1-1.63,3.33,23.25,23.25,0,0,1-2.22,3,26.9,26.9,0,0,1-2.65,2.58,15.62,15.62,0,0,1-3,2l.24.3.06.06a40.78,40.78,0,0,0,8,6.07,56.4,56.4,0,0,0,12,5.89,89.49,89.49,0,0,0,13,3.65Q54,95,59.29,95.59a.86.86,0,0,0,0-.16c-.34-1.64-.63-3.29-.9-4.93s-.51-3.33-.78-5a34.08,34.08,0,0,1-4.15-.31,47.18,47.18,0,0,1-5-.9,36.81,36.81,0,0,1-9.4-3.59,44.92,44.92,0,0,1-4.3-2.63,42.52,42.52,0,0,1-3.83-3.26A27.85,27.85,0,0,1,25,67c.2.3.4.59.61.88l.09.12c.08.11.16.21.23.32l.16.2.44.57a.76.76,0,0,0,.11.14c.2.26.41.51.62.75a.27.27,0,0,0,.07.08s0,0,0,0l0,0c.43.51.89,1,1.35,1.46s.82.82,1.24,1.2a41,41,0,0,0,12.56,8.08h0l0,0c.63.26,1.26.5,1.89.74.32.13.64.24,1,.34q1.88.63,3.78,1.11,1.55.39,3.12.66c.65.11,1.31.22,2,.3s1.35.16,2,.22,1.31.11,2,.13h.12s.49,5.55.93,11.16c0,.09,0,.17,0,.26s0,.35,0,.52A.34.34,0,0,0,59.42,96.47Z"/><path class="cls-9" d="M43.36,121.28l-.11,0-.32-.18a66,66,0,0,1-11.3-8.29,26.21,26.21,0,0,0-4.25,2.56c-.66.45-1.34,1-2,1.46.39,3.19.74,6.38,1.07,9.57l-.28-.12c-.3-3.08-.64-6.2-1-9.29-.33-2.75-.67-5.48-1-8.12-.17-1.24-.35-2.46-.53-3.66l-.09-.6c-.14-.9-.28-1.79-.43-2.67-.1-.63-.2-1.25-.31-1.86,0,0,0-.07,0-.11l.2.21.19.2c1.35,1.45,2.77,2.92,4.24,4.4l0,0c.74.76,1.52,1.52,2.3,2.25.08.09.16.16.24.24l.11.1c.41.4.81.79,1.23,1.17a.13.13,0,0,0,.07.06,101.39,101.39,0,0,0,9.53,8l0,0,.06.05h0l.06,0,.15.11c.69.52,1.38,1,2.06,1.45h0v0C43.28,118.56,43.31,119.6,43.36,121.28Z"/><path class="cls-8" d="M44.19,121.73l-.64-.34a.93.93,0,0,1-.19-.11c0-1.68-.08-2.72-.09-2.93v0l.17.11.09.06c.65.43,1,.67,1.43.91h0v0s0,0,0,0c.14,1,.3,1.93.47,2.92h-.05l-.38-.18Z"/><path class="cls-7" d="M46.58,122.58c0,.11.05.23.08.34l0,0-.2-.09-.32-.15L46,122.6l-.22-.11a1.75,1.75,0,0,1-.28-.13h0c-.18-1-.33-2-.48-2.93v0h0l.21.11,0,0,.55.31.1.06.06,0h0s0,0,0,0h0v0c.07.3.14.59.22.88l.09.39.06.26s0,0,0,0Z"/><path class="cls-9" d="M70.66,109.7a21,21,0,0,1-.73,2.69A18.41,18.41,0,0,1,66,119.15a11.88,11.88,0,0,1-2,1.7,2.11,2.11,0,0,1-.27.18l-.08.06h0l-.07.05V104.5h-.14l-.75.07h-.12l-.48,0v-8h-.66c-.43,0-1.05,0-1.83-.1h-.18v0s0-.07,0-.1l-.06-.78v-.1c-.39-5.43-.9-10.78-.93-11.06H58.3c-.66,0-1.31-.07-2-.13s-1.35-.13-2-.22l-1-.14c-.69-.11-1.38-.23-2.06-.37q-.43-.07-.87-.18c-.47-.1-.93-.21-1.4-.33-1.19-.3-2.38-.65-3.55-1-.4-.13-.79-.27-1.19-.42l-.71-.27-.06,0-.9-.36,0,0h0a1.59,1.59,0,0,1,.11-.16l.7-1.06c.44-.69,1-1.57,1.55-2.49l.55-.94s0,0,0,0,.09-.17.13-.25a17.24,17.24,0,0,0,.93-1.91.61.61,0,0,0,.05-.12h0a3.31,3.31,0,0,0,.25-1,.81.81,0,0,0,0-.16s0,0,0,0,0,0,0,0a.07.07,0,0,0,0,0v0a0,0,0,0,0,0,0,.16.16,0,0,0-.07-.09.09.09,0,0,0-.06,0c-.14-.08-.37-.06-.7.09l-.09-.12a2.54,2.54,0,0,1,.34-.23,1,1,0,0,1,.44-.11.63.63,0,0,1,.49.27,1,1,0,0,1,1.62.87,1.1,1.1,0,0,1-.16.57l-.08.13a1.06,1.06,0,0,1-1.42.31s0,0,0,0a1.28,1.28,0,0,1,.23.66,1.06,1.06,0,0,1-.34.79l-.11.1a1.09,1.09,0,0,1-.5.23h0c-.1.22-.21.44-.33.65-.48.74-1,1.46-1.54,2.15-.23.3-.48.59-.74.87,1.77.69,3.58,1.29,5.41,1.8a60.7,60.7,0,0,0,9.37,1.67l1,.14L61.17,83c-.7-2.72-1.26-5.56-1.76-8.33a.24.24,0,0,1,0-.08l.09-.05h0a7.66,7.66,0,0,0-2.95-1.4,28.57,28.57,0,0,0-4.75-.88L47,71.83a1.4,1.4,0,0,1-.46.1L45.4,72c-.07-.11-.15-.22-.21-.33h0a3.14,3.14,0,0,1-.24-.39l2.85,0c5.67.07,11.08.45,13.26,3.07l.1.24-1.52.12h-.18c.15.47.91,2.94,2,6.38l.37,1.18c.12.4.25.81.39,1.24.27.86.55,1.75.83,2.66,1.72,5.49,3.76,11.93,5.37,16.89.62,1.86,1.17,3.51,1.62,4.82C70.26,108.58,70.48,109.2,70.66,109.7Z"/><path class="cls-9" d="M57.34,126.25h-.2a21,21,0,0,1-2.37-.44,0,0,0,0,1,0,0h0A48.05,48.05,0,0,1,48,123.52c0,.48,0,1-.07,1.42-.2-.57-.4-1.15-.61-1.72l-.48-.21-.17-.08c0-.12-.05-.23-.09-.35l-.24-1s0,0,0,0a2.44,2.44,0,0,0-.06-.26l-.09-.39c-.07-.29-.14-.58-.2-.87h0v0h0v0h0l.06,0h0l.08,0,.07,0,.3.17c.54.32,1.09.62,1.64.91a50.35,50.35,0,0,0,8.9,3.74h0s0,0,0,.07C57.16,125.43,57.25,125.84,57.34,126.25Z"/><path class="cls-8" d="M61.15,74.56l-1.7.13c.52,1.68,8.82,28.53,11.27,35a9.1,9.1,0,0,0,4.3-6.83C65.6,85.21,61.78,76.11,61.15,74.56Z"/><path class="cls-10" d="M60.51,126.67l-.35-.23-.11-.07h-.63a17.53,17.53,0,0,1-1.78-.11.43.43,0,0,1-.16,0h-.17c-.1-.41-.18-.83-.27-1.24h0s0,0,0-.06h0l.13,0h0a9.33,9.33,0,0,0,1.16.28h0a16.54,16.54,0,0,0,1.72.24h0s0,0,0,.07c.08.25.16.5.25.75A3.37,3.37,0,0,0,60.51,126.67Z"/><path class="cls-11" d="M57.64,126.27a.43.43,0,0,1-.16,0h-.17c-.1-.41-.18-.83-.27-1.24h0s0,0,0-.06h0a0,0,0,0,1,0,0h.15s0,0,0,0h0s0,0,0,0v0s0,0,0,.05h0C57.37,125.46,57.5,125.86,57.64,126.27Z"/><path class="cls-7" d="M57.48,126.26h-.34c0-.41-.08-.82-.11-1.24a.13.13,0,0,1,0-.06h0l.05,0h.08s0,0,0,0h0s0,0,0,0,0,0,0,0a.07.07,0,0,0,0,.05C57.29,125.45,57.38,125.85,57.48,126.26Z"/><path class="cls-11" d="M46.84,123l-.17-.08.24.94c-.09-.31-.17-.63-.25-.94h0l0,0c-.22-.86-.42-1.71-.61-2.57h0c0-.1-.05-.21-.07-.31h.24s0,0,0,0a.14.14,0,0,1,0,.06s0,0,0,0,0,0,0,0c.38,1,.74,2,1.1,3Z"/><path class="cls-11" d="M43.25,121.23l-.32-.18c.07-.84.15-1.69.25-2.53a1.64,1.64,0,0,1,0-.22v0h.24v.17l.1,2.92a.93.93,0,0,1-.19-.11Z"/><path class="cls-12" d="M44.19,121.73l-.64-.34a.93.93,0,0,1-.19-.11l-.11,0-.07-2.71v-.23h.32a.17.17,0,0,1,0,.07h0a.17.17,0,0,0,0,.07s0,0,0,0,0,0,0,0C43.77,119.59,44,120.66,44.19,121.73Z"/><path class="cls-11" d="M45.34,120.17c.2.81.41,1.62.62,2.43l-.22-.11a1.75,1.75,0,0,1-.28-.13h-.05c-.18-1-.34-2-.5-2.94h.24s0,0,0,0v0h0v0a.14.14,0,0,0,0,.06.06.06,0,0,0,0,0,2.37,2.37,0,0,0,.09.36.13.13,0,0,0,0,.06.19.19,0,0,0,0,.07.07.07,0,0,0,0,0A.13.13,0,0,0,45.34,120.17Z"/><path class="cls-8" d="M46.67,122.93l.24.94c-.09-.31-.17-.63-.25-.94h0l0,0-.2-.09c-.15-.83-.29-1.65-.41-2.48h0c0-.1,0-.2,0-.3h0s0,0,0,0h.16a0,0,0,0,0,0,0h0s0,0,0,0,0,0,0,0a.06.06,0,0,0,0,0c.22,1,.46,1.92.7,2.88Z"/><path class="cls-13" d="M45.34,120.17c.12.78.26,1.55.4,2.32a1.75,1.75,0,0,1-.28-.13h-.05l-.38-.18c-.06-.92-.12-1.85-.16-2.77h.34s0,0,0,0h0s0,0,0,.06a.06.06,0,0,0,0,0c0,.11,0,.22,0,.33a.13.13,0,0,0,0,.06.19.19,0,0,0,0,.07.07.07,0,0,0,0,0A.13.13,0,0,0,45.34,120.17Z"/><path class="cls-12" d="M12.8,120.44l-1.45-.63a2.26,2.26,0,0,1-.24-.64,7.75,7.75,0,0,1-1.2,2.27,3,3,0,0,1-.23.26c0-1.66-.07-3.3-.1-5v-1.63l-.1-10.38-.08-9,0-3-.08-9v-.13h.29c0,.11,0,.24.07.35s0,0,0,0c.06.26.11.51.16.77h0s0,0,0,0,0,.07,0,.11,0,0,0,0c.07.34.14.7.21,1.05v0c.51,2.66.94,5.36,1.28,8,.13,1.06.25,2.12.35,3.18h0q.13,1.35.24,2.7c0,.07,0,.15,0,.22.29,2.75.38,5.51.57,8.27l.15,4.76.11,3.51C12.77,118,12.79,119.2,12.8,120.44Z"/><path class="cls-14" d="M59.9,74.81,60,75l.12.13Z"/><path class="cls-14" d="M74.28,102.81V103l.12.19Z"/><path class="cls-14" d="M75.17,102.81v0a9.34,9.34,0,0,1-4.29,6.85l-.08.05-.06-.08,0-.05.06,0,.08-.07a10.29,10.29,0,0,0,2.45-3,9.25,9.25,0,0,0,.71-1.83,8.32,8.32,0,0,0,.24-1.64l.12.19,0-.11-.06-.25V103L70.8,97.16l-.47-.79c-.46-.79-.91-1.59-1.34-2.4-.83-1.51-1.63-3-2.41-4.6-1.2-2.38-2.53-4.79-3.53-7.16s-2-4.64-2.94-7h0s0,0,0,0a.36.36,0,0,1,0-.09l.12.13L60,74.81l.09.23h0l0,0L60,75l-.33-.28,0,0-.09-.07s0,0,0,0h0a7.66,7.66,0,0,0-2.95-1.4,28.57,28.57,0,0,0-4.75-.88L47,71.83l-.23,0-1.59-.19h0a3.14,3.14,0,0,1-.24-.39l-.07-.11c1,0,2,0,3,0,1.31,0,2.61,0,3.92.11a28.14,28.14,0,0,1,5,.63,8.3,8.3,0,0,1,4.44,2.37c2,4.88,4.37,9.65,6.69,14.41.4.81.8,1.61,1.21,2.42.59,1.21,1.2,2.41,1.82,3.61C72.32,97.41,73.74,100.12,75.17,102.81Z"/><path class="cls-8" d="M47.27,73.25v.06a2.83,2.83,0,0,1-.16,1l0,.1s0,0,0,0a13.8,13.8,0,0,1-.72,1.78h0c-.1.22-.21.44-.33.65-.48.74-1,1.46-1.54,2.15-.23.3-.48.59-.74.87a12.73,12.73,0,0,1-1,1,1.07,1.07,0,0,1-.16.14h0l0,0h-.06l0-.06h0l.11-.15.7-1.07c.51-.8,1-1.62,1.49-2.44.16-.28.33-.56.49-.85l.13-.22h0a1.62,1.62,0,0,0,.1-.18,19.71,19.71,0,0,0,.94-1.9l0-.09,0-.06h0a2.41,2.41,0,0,0,.23-.94.71.71,0,0,0,0-.14,0,0,0,0,1,0,0h0v-.08a0,0,0,0,0,0,0,.16.16,0,0,0-.07-.09.09.09,0,0,0-.06,0,.42.42,0,0,0-.2,0l-.18,0-.3.11,0,0-.09-.12a2.54,2.54,0,0,1,.34-.23,1,1,0,0,1,.44-.11.63.63,0,0,1,.49.27l.06.1A2.52,2.52,0,0,1,47.27,73.25Z"/><path class="cls-11" d="M59.69,75s0,0,0,0l-.13-.28s0-.07,0-.1h0l-.09.05a.24.24,0,0,0,0,.08l5.37,17.53L67.64,101c.25.73.5,1.46.74,2.19h0c.54,1.59,1.06,3.16,1.62,4.73h0c.21.6.42,1.18.64,1.77h.1l.05,0h0s0,0,0-.06a6.17,6.17,0,0,0-.11-.62v0c-.16-.89-.35-1.74-.53-2.62h0c-.08-.4-.16-.81-.23-1.22l-1.08-4.48c-.06-.25-.12-.5-.19-.75Z"/><path class="cls-11" d="M68.63,99.86c-.68-2.74-1.51-5.43-2.33-8.12A113.31,113.31,0,0,0,59.69,75Z"/><path class="cls-8" d="M70.89,109.61v.06s0,0,0,0a21.54,21.54,0,0,1-2.47,6.44,13.66,13.66,0,0,1-2.35,3.08A12.6,12.6,0,0,1,64,120.94a2,2,0,0,1-.26.18l0,0,0-.06,0,0,0,0,0,0a.52.52,0,0,0,.11-.1,1.62,1.62,0,0,0,.28-.25,12.9,12.9,0,0,0,1.72-1.82c.07-.09.15-.18.22-.28a15.91,15.91,0,0,0,1.71-2.86,19.13,19.13,0,0,0,1.23-3.09,18.59,18.59,0,0,0,.66-2.82h0c-.5-1.22-.94-2.44-1.37-3.66-.57-1.6-1.11-3.19-1.7-4.77-1.07-2.89-1.83-5.88-2.74-8.81-.43-1.43-.89-2.94-1.29-4.43l-1.11-4.48L61.17,83c-.7-2.72-1.26-5.56-1.76-8.33a.24.24,0,0,1,0-.08l.09-.05h0l.06,0,0,.12v0l.08.28s0,0,0,0l5.43,17.13L68,100.88c.16.5.32,1,.49,1.5.53,1.61,1.07,3.23,1.62,4.83l.6,1.73v0c.07.19.13.37.19.55l0,.07S70.89,109.6,70.89,109.61Z"/><path class="cls-15" d="M25,66.87,25,67h0a13.72,13.72,0,0,1-1.63,3.33,23.25,23.25,0,0,1-2.22,3,26.9,26.9,0,0,1-2.65,2.58,15.62,15.62,0,0,1-3,2,.05.05,0,0,1,0,0l-.18.1L15.2,78h0l0,0,0,0h0l.12-.15.05-.06c1.49-1.84,3-3.64,4.58-5.43l5-5.45.07,0h0Z"/><path class="cls-16" d="M59.69,90.44c0,1.72,0,3.48-.09,5.18,0,.26,0,.51,0,.76v.1a.06.06,0,0,1,0,0v.07h-.17v0s0,0,0-.07v0s0-.07,0-.1l-.06-.78h0a.86.86,0,0,0,0-.16v0c-.26-3.3-.56-6.6-.88-9.9v0l-.09-.92a45.7,45.7,0,0,1-18.76-4.88,42.41,42.41,0,0,1-8.13-5.47,34.47,34.47,0,0,1-2.7-2.57c-.46-.47-.92-1-1.35-1.46l0,0a0,0,0,0,0,0,0L27.25,70c-.21-.24-.42-.49-.62-.75a.76.76,0,0,1-.11-.14c-.15-.18-.3-.37-.44-.57l-.16-.2L25.69,68l-.09-.12c-.21-.29-.41-.58-.61-.88a.08.08,0,0,1,0,0h0l0,0s0,0,0,0h0l0,0,.06,0h0l.08.09s0,0,0,0c.81.9,1.66,1.79,2.53,2.62h0l.48.46.63.58h0c.14.14.29.27.43.39h0l.47.4h0l.76.65h0l.43.35h0c.41.32.82.65,1.24,1l.11.08.46.33c.46.34.93.66,1.41,1l.56.36c.42.27.85.53,1.28.78l.18.11c.31.2.61.39.93.57a3.79,3.79,0,0,0,.34.2c.93.56,1.89,1.08,2.86,1.55s2,.92,3.07,1.33h0l.38.15c1.77.69,3.58,1.29,5.41,1.8a60.7,60.7,0,0,0,9.37,1.67l1,.14v.86C59.58,86.35,59.73,88.39,59.69,90.44Z"/><path class="cls-9" d="M59.55,96.54v0l0-.07v0l0-.11c0-.17-.07-.35-.11-.52a2.38,2.38,0,0,1,0-.26.29.29,0,0,1,0-.09s0,0,0-.07c-.34-1.64-.63-3.29-.9-4.93s-.51-3.33-.78-5a34.08,34.08,0,0,1-4.15-.31,47.18,47.18,0,0,1-5-.9,36.81,36.81,0,0,1-9.4-3.59,44.92,44.92,0,0,1-4.3-2.63,42.52,42.52,0,0,1-3.83-3.26A27.85,27.85,0,0,1,25,67a.08.08,0,0,1,0,0s0,0,0,0a.25.25,0,0,1,0-.07l.06,0,.06,0h0l.07.1A34.39,34.39,0,0,0,31.59,74,41.14,41.14,0,0,0,39.7,79.4c1,.48,1.94.92,2.93,1.34h0l.09,0a47,47,0,0,0,15.7,3.51h.11v.1c.34,3.73.65,7.48.92,11.22,0,.26.05.51.06.77a.34.34,0,0,1,0,.1v0S59.55,96.53,59.55,96.54Z"/><path class="cls-16" d="M62.86,95.92l-.06.67c-.18,2.26-.3,4.5-.51,6.74,0,.32-.06.64-.1,1a.77.77,0,0,1,0,.15.57.57,0,0,1,0,.13v0H62V96.7h.1l-.1-.1v.1l-.51,0h-.1c-.63,0-1.26,0-1.9-.08h-.11a85.34,85.34,0,0,1-10.93-1.31A77.78,77.78,0,0,1,35.21,91.7,53.71,53.71,0,0,1,23,85.38,37.65,37.65,0,0,1,13.62,76c.12.13.23.26.36.39.41.46.84.92,1.29,1.36a.17.17,0,0,0,.06.06.44.44,0,0,0,.12.11,2.46,2.46,0,0,0,.28.28l.06.06a40.78,40.78,0,0,0,8,6.07,56.4,56.4,0,0,0,12,5.89,89.49,89.49,0,0,0,13,3.65Q54,95,59.29,95.59h.06l.12,0h.13c.85.1,1.69.18,2.54.25Z"/><path class="cls-11" d="M62,96.6v.1h.1Z"/><path class="cls-7" d="M61.43,96.62h0v0l.05,0h0Zm.71-.12q-1.29,0-2.58-.12h-.2A85.75,85.75,0,0,1,48.54,95a80.07,80.07,0,0,1-13.18-3.61,54.42,54.42,0,0,1-12.14-6.23,39.06,39.06,0,0,1-7.43-6.92l-.06-.06-.24-.3a1.34,1.34,0,0,1-.11-.14l-.06-.07c-.58-.72-1.13-1.47-1.66-2.23l-.2.2,0,0-.16.16,0,0a37,37,0,0,0,9.19,10.36,51.85,51.85,0,0,0,12.3,6.64,71,71,0,0,0,13.47,3.53,61.64,61.64,0,0,0,6.91.78c2.09.12,4.17.21,6.28.15.15,2,.27,4,.47,6,0,.31.05.61.09.92a1.1,1.1,0,0,0,0,.18s0,.08,0,.12h.16v-8.1Zm-.75.18v-.06h0v0l.05,0h0l.52.52,0,0,.07.07h-.67Z"/><path class="cls-7" d="M61.41,96.6l.06.74h.67Z"/><path class="cls-16" d="M64.74,103.23v1.17l-.38,10L64.21,117c-.07,1.24-.13,2.47-.22,3.69a1.27,1.27,0,0,1,0,.2.28.28,0,0,1,0,.09c-.07,1.16-.15,2.31-.26,3.46h-.32V104.6l-.68.05h-.18c-1.3.09-2.6.14-3.9.14H57.09a59.92,59.92,0,0,1-9-.9A47.9,47.9,0,0,1,33.56,99a52,52,0,0,1-6.44-4.26,76,76,0,0,1-5.9-5,42.71,42.71,0,0,1-9.14-11.65s0,0,0,0-.07-.15-.11-.22l-.06-.13a0,0,0,0,1,0,0l-.06-.13.16-.06,0,0,0,0a2.39,2.39,0,0,0,.13.21c2.55,4.3,6.15,7.85,9.81,11.13a69.14,69.14,0,0,0,6,4.65,48.8,48.8,0,0,0,6.32,4,53.14,53.14,0,0,0,14.14,4.72,65,65,0,0,0,9,1l.8,0c1.21,0,2.43,0,3.64,0h.38l1.16,0Z"/><path class="cls-8" d="M63.77,105.59h-.06v18.8l-.05,0-.1,0a.22.22,0,0,0,0-.08h0c-.06-.68-.11-1.36-.16-2-.18-2.42-.3-4.84-.45-7.25,0-.21,0-.41,0-.62l-.33-8.75q-1.82.18-3.63.21c-.72,0-1.43,0-2.14,0-.31,0-.61,0-.92,0a64.28,64.28,0,0,1-7.83-.78A45.44,45.44,0,0,1,33.12,100a57.14,57.14,0,0,1-12.34-9.65,44.29,44.29,0,0,1-5.13-5.9,27.78,27.78,0,0,1-3.57-6.41s0,0,0,0a2.6,2.6,0,0,1-.1-.25l-.05-.12v0h0l0,0h.09l.11.22c2.17,4.5,5.63,8.33,9.27,11.78a71.44,71.44,0,0,0,5.91,4.93,45.27,45.27,0,0,0,20.91,9.1,60.22,60.22,0,0,0,8.88.92l1.41,0c1.15,0,2.29,0,3.44-.09h.17a0,0,0,0,0,0,0c.46,0,.93,0,1.39-.09h.13v1.19Z"/><path class="cls-16" d="M60.56,126.31h0l-.12,0a2.13,2.13,0,0,1-.25,0h-.74a17.53,17.53,0,0,1-1.78-.11.43.43,0,0,1-.16,0h-.34a21,21,0,0,1-2.37-.44,0,0,0,0,1,0,0h0A48.05,48.05,0,0,1,48,123.52l-.68-.3-.48-.21-.17-.08h0l0,0-.2-.09-.32-.15L46,122.6l-.22-.11a1.75,1.75,0,0,1-.28-.13h-.05l-.38-.18-.84-.43-.64-.34a.93.93,0,0,1-.19-.11l-.11,0-.32-.18a66,66,0,0,1-11.3-8.29l-.6-.52c-1.46-1.37-2.91-2.73-4.29-4.15h0c-.5-.51-1-1-1.47-1.55l-.61-.66,0,0c-.32-.35-.63-.71-.94-1.07l-.21-.23-.08-.09h0a.47.47,0,0,1-.1-.1l-.58-.68c-1.31-1.5-2.59-3-3.83-4.56L18.8,99c-1.87-2.34-3.6-4.78-5.28-7.26-.16-.24-.31-.49-.46-.73-.66-1-1.32-2-1.93-3.07L10,86v0L10,86a4.24,4.24,0,0,1-.6-1.44,3,3,0,0,1-.12-.73h0a.22.22,0,0,1,0-.08h0l.07,0h.08l.15,0a3.74,3.74,0,0,0,.33.92.6.6,0,0,0,.09.15,3.48,3.48,0,0,0,.58.8L12,87.2l1.42,1.7,1.42,1.7q2.87,3.38,5.87,6.65c2.67,2.93,5.42,5.79,8.26,8.55.46.45.92.9,1.39,1.34q1.41,1.35,2.85,2.67a74.36,74.36,0,0,0,7.22,6l0,0a74.68,74.68,0,0,0,6.88,4.51q.42.24.84.45a58.63,58.63,0,0,0,7.16,3.29,19.94,19.94,0,0,0,2.5.75h0c.58.14,1.16.26,1.74.35l.67.07.05.16,0,.12Z"/><path class="cls-8" d="M12,77.59h0s0,0,0,.06a.56.56,0,0,1,0,.12,0,0,0,0,1,0,0,10.3,10.3,0,0,1-.55,1.43c-.22.46-.5,1-.68,1.46A12.12,12.12,0,0,0,10,82.1a12.78,12.78,0,0,0-.61,1.55H9.36A5.63,5.63,0,0,1,10,80.33a12.12,12.12,0,0,1,1.89-2.66s0,0,0,0a0,0,0,0,1,0,0h0l.07-.08h0v0Z"/><path class="cls-16" d="M25.34,116.78c.39,3.19.74,6.38,1.07,9.57l-.28-.12-.05,0-.21-.09c-.29-3-.59-6-.93-9-.3-2.74-.63-5.47-1-8.21-.16-1.27-.34-2.55-.53-3.82h0c0-.23-.06-.46-.1-.69-.12-.86-.25-1.71-.4-2.57-.07-.51-.16-1-.24-1.54l-.06-.35h.11l.21,0c.06.15.12.29.17.44s0,0,0,0a.78.78,0,0,1,.05.14s0,0,0,0c.26.65.51,1.3.73,2h0c.45,1.25.87,2.5,1.25,3.77,0,.11.07.21.1.32.18.6.36,1.2.52,1.8q.84,3.07,1.44,6.23c.06.25.11.5.16.75C26.72,115.77,26,116.27,25.34,116.78Z"/><path class="cls-17" d="M26.41,126.35l-.28-.12-.05,0-.21-.09L24,125.28l-.23-2.69c-.09-1.46-.2-2.91-.31-4.36-.08-1-.15-2.11-.2-3.17-.13-2-.24-3.91-.31-5.88-.07-1.51-.12-3-.16-4.56l0-.94c0-.67,0-1.35,0-2,0-.46,0-.92,0-1.39,0-.1,0-.21,0-.31v0h.23l0,.18v0s0,.07,0,.11c.1.59.2,1.18.29,1.77h0c.16.92.31,1.85.45,2.78,0,.16.06.33.08.5.19,1.15.36,2.32.52,3.48.39,2.66.73,5.34,1.05,8C25.73,120,26.08,123.16,26.41,126.35Z"/><path class="cls-17" d="M63.7,124.45a2.66,2.66,0,0,1-1.94,1.07,8.69,8.69,0,0,1-1.44.07h-.16c-.22,0-.43,0-.64-.06l-1-.17h0c-.42-.08-.84-.18-1.26-.29h0a.28.28,0,0,1-.13,0h0s0,0,0,0a16.62,16.62,0,0,1-1.82-.56,58.28,58.28,0,0,1-8.07-3.71l-.46-.27a1.28,1.28,0,0,1-.25-.15,1.13,1.13,0,0,1-.21-.12l-.08-.05A.51.51,0,0,1,46,120h0s0,0,0,0a0,0,0,0,1,0,0h0l-.69-.41,0,0h0l-.21-.13,0,0s0,0,0,0h0c-.46-.28-.92-.56-1.37-.86l-.09-.06a.94.94,0,0,1-.18-.12l-.07,0h0c-.76-.48-1.5-1-2.24-1.52v0c-.47-.31-.93-.65-1.39-1l-.2-.14a76,76,0,0,1-6.46-5.43c-1-1-2.06-1.91-3.07-2.89h0c-.93-.91-1.84-1.82-2.73-2.74h0c-1.31-1.33-2.6-2.67-3.87-4,0,0,0,0,0,0a1.58,1.58,0,0,1-.22-.23l-.2-.21-.09-.09h0c-.74-.79-1.47-1.59-2.2-2.39q-3-3.32-5.82-6.7l-2.82-3.44-1.43-1.7A3.6,3.6,0,0,1,9.83,85s0,0,0,0a3.62,3.62,0,0,1-.44-1.1s0,0,0,0a.94.94,0,0,1,0-.16H9.5a2.13,2.13,0,0,0,.14.35s0,0,0,0a2.7,2.7,0,0,0,.27.5.6.6,0,0,0,.09.15,3.67,3.67,0,0,0,.67.75l1.52,1.62,3.06,3.21q3,3.27,6.1,6.42c3.36,3.45,6.71,6.91,10.23,10.17.78.72,1.57,1.44,2.37,2.14l.38.36.06.05a78.68,78.68,0,0,0,11.11,8.82h0c.73.48,1.46,1,2.2,1.4a59.25,59.25,0,0,0,7.76,4c.37.16.74.32,1.11.46h0a20.68,20.68,0,0,0,3,.89,7.86,7.86,0,0,0,2.11.17,2.09,2.09,0,0,0,.56,0,2.45,2.45,0,0,0,1.29-.72h0l0,0,.06,0Z"/><path d="M60.8,45.74c-4.11-2.38-3.11-5.07-3.11-5.07C61,31.93,47.82,19.2,33.13,20.5c-14.35,1.31-21.2,19.61-6.44,27.77a3.7,3.7,0,0,0,3.53,3.22,7.63,7.63,0,0,0,1.91,0l.24-.08c1.24,4.08,6.54,7.4,13.41,9.4a50.38,50.38,0,0,0,8.36,1.61c3,.34,1.43-3.52,2-4.33.39-.56,1.9-.73,2.8-.79C56.4,57,55.66,54.2,55.61,54h0a13,13,0,0,1,3.84-2.3,2.59,2.59,0,0,1-1.17-2.46C60.23,48.59,60.8,45.74,60.8,45.74ZM30.15,44.47s0,3.1,1.3,4.39C27.63,50.28,27.91,42.83,30.15,44.47Zm17.33,3.79.08-.13a5.6,5.6,0,0,0,4.38.77A6.11,6.11,0,0,0,54.78,47c.07.48.17,1,.26,1.44a6.75,6.75,0,0,1-2.79,1.64,5.43,5.43,0,0,1-1.6.23,6.47,6.47,0,0,1-2-.35Q48.05,49.12,47.48,48.26Zm3.94-8.93a3.33,3.33,0,0,1,1.5-1.25A2.44,2.44,0,0,1,54.06,38a1.17,1.17,0,0,1,.94.72.09.09,0,0,1,0,0,.13.13,0,0,1-.08.12h0c-.71.21-.83.56-1.22.83a10.91,10.91,0,0,1-1.31.69,16.19,16.19,0,0,0-2.61,2.13.12.12,0,0,1-.14,0,.17.17,0,0,1,0-.1A9.28,9.28,0,0,1,51.42,39.33Zm-1.22-.87a.37.37,0,0,1,.37-.36.36.36,0,0,1,.36.36.37.37,0,0,1-.36.37A.38.38,0,0,1,50.2,38.46Zm1.7-1.53a.61.61,0,1,1,.61.61A.61.61,0,0,1,51.9,36.93Zm-.54,15.83h-.64l-1-1.34c3.65.67,5.11-.91,5.65-1.8A13.17,13.17,0,0,0,55.83,51,5.79,5.79,0,0,1,51.36,52.76ZM55,42.53a3.16,3.16,0,0,1-.17,2.3c.26,0,.51-.07.76-.12v.12a2.65,2.65,0,0,1-1.17,1,4.42,4.42,0,0,1-1.39.29,4.35,4.35,0,0,1-1.37-.37,3,3,0,0,1-1.23-1.15l0-.06c0-.14-.06-.53.61-1.17a9.09,9.09,0,0,1,1.69-1.2,5.81,5.81,0,0,1,1.61-.61,5.17,5.17,0,0,1,1.71-.08l0,.08A4,4,0,0,1,55,42.53Zm2.39-3.66-1,.47h-.21C56.78,35.1,53,29,48.72,26.9l1.17-.75C54.18,28.56,57.7,34.39,57.39,38.87Z"/><path class="cls-18" d="M31.45,48.86c-3.82,1.42-3.54-6-1.3-4.39C30.15,44.47,30.15,47.57,31.45,48.86Z"/><path class="cls-18" d="M55,38.79a.13.13,0,0,1-.08.12h0c-.71.21-.83.56-1.22.83a10.91,10.91,0,0,1-1.31.69,16.19,16.19,0,0,0-2.61,2.13.12.12,0,0,1-.14,0,.17.17,0,0,1,0-.1,9.28,9.28,0,0,1,1.78-3.13,3.33,3.33,0,0,1,1.5-1.25A2.44,2.44,0,0,1,54.06,38a1.17,1.17,0,0,1,.94.72A.09.09,0,0,1,55,38.79Z"/><path class="cls-18" d="M55,48.42a6.75,6.75,0,0,1-2.79,1.64,5.43,5.43,0,0,1-1.6.23,6.47,6.47,0,0,1-2-.35q-.6-.82-1.17-1.68l.08-.13a5.6,5.6,0,0,0,4.38.77A6.11,6.11,0,0,0,54.78,47C54.85,47.46,55,47.94,55,48.42Z"/><path class="cls-18" d="M50.93,38.46a.37.37,0,0,1-.36.37.38.38,0,0,1-.37-.37.37.37,0,0,1,.37-.36A.36.36,0,0,1,50.93,38.46Z"/><path class="cls-18" d="M55,42.53a3.16,3.16,0,0,1-.17,2.3c.26,0,.51-.07.76-.12v.12a2.65,2.65,0,0,1-1.17,1,4.42,4.42,0,0,1-1.39.29,4.35,4.35,0,0,1-1.37-.37,3,3,0,0,1-1.23-1.15l0-.06c0-.14-.06-.53.61-1.17a9.09,9.09,0,0,1,1.69-1.2,5.81,5.81,0,0,1,1.61-.61,5.17,5.17,0,0,1,1.71-.08l0,.08A4,4,0,0,1,55,42.53Z"/><path class="cls-18" d="M55.83,51a5.79,5.79,0,0,1-4.47,1.8h-.64l-1-1.34c3.65.67,5.11-.91,5.65-1.8A13.17,13.17,0,0,0,55.83,51Z"/><circle class="cls-18" cx="52.51" cy="36.93" r="0.61"/><path class="cls-18" d="M57.39,38.87l-1,.47h-.21C56.78,35.1,53,29,48.72,26.9l1.17-.75C54.18,28.56,57.7,34.39,57.39,38.87Z"/><path class="cls-18" d="M60.8,52.35a1,1,0,0,1,0,.18s0,0,0,0a2.26,2.26,0,0,1-2.49,1.8,2.64,2.64,0,0,1,.29.15,3.4,3.4,0,0,1,.3.21l.06,0a2,2,0,0,1,.75,2.49l0,0-.66,0s0,0,0,0C56.4,57,55.66,54.2,55.61,54h0a13,13,0,0,1,3.84-2.3,4.65,4.65,0,0,0,1.34.64Z"/><path class="cls-19" d="M31.45,48.86c-3.82,1.42-3.54-6-1.3-4.39C30.15,44.47,30.15,47.57,31.45,48.86Z"/><path class="cls-1" d="M54.67,42.06c-2.25.84-3.85,1.33-4.17,2.55a8.52,8.52,0,0,0,4.16.34A3.4,3.4,0,0,0,54.67,42.06Z"/><path class="cls-20" d="M54.83,44.83l0,.09h-.12a.21.21,0,0,1,0-.06,3.16,3.16,0,0,1-.5-.8c-.17-.23-.08-.42-.17-.6s.12-.36.2-.54l0,0c.12-.2.28-.4.51-.77h0l.09-.1a2.52,2.52,0,0,1,.21.54A3.16,3.16,0,0,1,54.83,44.83Z"/><path class="cls-20" d="M55.59,44.71v.12a2.65,2.65,0,0,1-1.17,1,4.42,4.42,0,0,1-1.39.29,4.35,4.35,0,0,1-1.37-.37,3,3,0,0,1-1.23-1.15l0-.06,0,0h0l.08,0a10.46,10.46,0,0,0,4,.33h.2C55.09,44.8,55.34,44.76,55.59,44.71Z"/><path class="cls-21" d="M56.13,41.56a4,4,0,0,1-1.13,1,.57.57,0,0,1-.13.08l-.07,0a6.56,6.56,0,0,1-.62.23,7.54,7.54,0,0,1-.94.22,9.58,9.58,0,0,0-1.48.51,5.77,5.77,0,0,0-1.14.91l-.12.09a.14.14,0,0,1,0-.07c0-.14-.06-.53.61-1.17a9.09,9.09,0,0,1,1.69-1.2,5.81,5.81,0,0,1,1.61-.61,5.17,5.17,0,0,1,1.71-.08Z"/><path class="cls-22" d="M59.66,57.24l0,0,0,0a3.34,3.34,0,0,1-.64,0s0,0,0,0C56.4,57,55.66,54.2,55.61,54h0l2.62.39.26.12a3.07,3.07,0,0,1,.36.2l.06,0A1.72,1.72,0,0,1,59.66,57.24Z"/><path class="cls-23" d="M60.78,52.18s0,.06,0,.16a.68.68,0,0,1,0,.19s0,0,0,0a2.18,2.18,0,0,1-2.2,2h-.06a7.51,7.51,0,0,1-2.88-.5h0a13,13,0,0,1,3.84-2.3C60.05,51.54,60.56,51.64,60.78,52.18Z"/><path class="cls-24" d="M55,48.42a6.75,6.75,0,0,1-2.79,1.64,5.43,5.43,0,0,1-1.6.23,6.47,6.47,0,0,1-2-.35q-.6-.82-1.17-1.68l.08-.13a5.6,5.6,0,0,0,4.38.77A6.11,6.11,0,0,0,54.78,47C54.85,47.46,55,47.94,55,48.42Z"/><path class="cls-24" d="M55.83,51a5.79,5.79,0,0,1-4.47,1.8h-.64l-1-1.34c3.65.67,5.11-.91,5.65-1.8A13.17,13.17,0,0,0,55.83,51Z"/><path class="cls-24" d="M57.39,38.87l-1,.47h-.21C56.78,35.1,53,29,48.72,26.9l1.17-.75C54.18,28.56,57.7,34.39,57.39,38.87Z"/><circle class="cls-24" cx="52.51" cy="36.93" r="0.61"/><path class="cls-24" d="M50.93,38.46a.37.37,0,0,1-.36.37.38.38,0,0,1-.37-.37.37.37,0,0,1,.37-.36A.36.36,0,0,1,50.93,38.46Z"/><path class="cls-25" d="M55,38.79a.13.13,0,0,1-.08.12h0c-.71.21-.83.56-1.22.83a10.91,10.91,0,0,1-1.31.69,16.19,16.19,0,0,0-2.61,2.13.12.12,0,0,1-.14,0,.17.17,0,0,1,0-.1,9.28,9.28,0,0,1,1.78-3.13,3.33,3.33,0,0,1,1.5-1.25A2.44,2.44,0,0,1,54.06,38a1.17,1.17,0,0,1,.94.72A.09.09,0,0,1,55,38.79Z"/><path class="cls-26" d="M45.54,64.14a1.61,1.61,0,0,1-.31,0C34.05,62,29.55,55,29.37,54.69A1.58,1.58,0,0,1,32,53c.06.09,4.06,6.12,13.8,8a1.58,1.58,0,0,1-.3,3.14Z"/><path class="cls-8" d="M45.84,61c-9.74-1.92-13.74-8-13.8-8a1.59,1.59,0,0,0-2.18-.49,1.63,1.63,0,0,0-.71,1.66,30.85,30.85,0,0,0,18,8.64A1.58,1.58,0,0,0,45.84,61Z"/><path class="cls-16" d="M46.49,68.65h-.22c-12.83-1.75-17.49-8.84-17.65-9.14a1.59,1.59,0,0,1,2.68-1.7c.17.27,4.14,6.17,15.4,7.69a1.59,1.59,0,0,1-.21,3.16Z"/><path class="cls-16" d="M46.7,65.49C35.44,64,31.47,58.07,31.3,57.8a1.59,1.59,0,0,0-2.89.52,32.67,32.67,0,0,0,19.65,8.53A1.59,1.59,0,0,0,46.7,65.49Z"/><path d="M48.07,70.27a1.58,1.58,0,0,1-.21.87l-.07.11a1.51,1.51,0,0,1-.78.58,1.4,1.4,0,0,1-.46.1L45.4,72H45c-13,0-17.29-7-17.47-7.27a1.47,1.47,0,0,1-.19-.7h0a1.71,1.71,0,0,1,0-.32,1.77,1.77,0,0,1,0-.2,1.51,1.51,0,0,1,.14-.35v0a2.34,2.34,0,0,1,.24-.31,1.46,1.46,0,0,1,.34-.26,1.59,1.59,0,0,1,1.89.22l.14.15.12.17,0,0a7,7,0,0,0,1,1.18l.51.47A11.89,11.89,0,0,0,33.5,66c2.47,1.52,6.55,3,12.92,2.73a2.07,2.07,0,0,1,.35,0,1.86,1.86,0,0,1,.45.16,1.71,1.71,0,0,1,.27.2l.09.06h0A1.59,1.59,0,0,1,48.07,70.27Z"/><path d="M46.42,68.75c-12.21.52-16-5.4-16.21-5.69a1.58,1.58,0,0,0-2.93.92c5,5.88,12.87,6.85,20.3,5.22A1.61,1.61,0,0,0,46.42,68.75Z"/><text class="cls-27" transform="translate(75.02 126.67) scale(0.8 1)">MAASAI</text></g></g></svg>